<svg width="24" height="24" viewBox="0 0 24 24" fill="none" xmlns="http://www.w3.org/2000/svg">
<path d="M5.44677 3.31049C7.17793 1.67819 9.53393 0.752838 12 0.75C14.4661 0.752838 16.8221 1.67819 18.5532 3.31049C20.2831 4.94156 21.2472 7.14329 21.25 9.42984C21.2497 13.1866 19.125 16.5521 16.8501 19.0658C14.6295 21.5197 12.3605 23.0573 12.1184 23.2191C12.086 23.238 12.0449 23.25 12 23.25C11.9551 23.25 11.914 23.238 11.8816 23.2191C11.6395 23.0573 9.37048 21.5197 7.14985 19.0658C4.87496 16.552 2.75017 13.1863 2.75 9.42939C2.75288 7.14301 3.71703 4.94145 5.44677 3.31049ZM14.42 5.94351C13.7001 5.48995 12.8581 5.25023 12 5.25023C10.8504 5.25023 9.73971 5.68041 8.91418 6.4588C8.08716 7.23859 7.61364 8.30597 7.61364 9.42894C7.61364 10.2656 7.87699 11.0794 8.36455 11.7675C8.85168 12.4549 9.53929 12.9843 10.3356 13.2953C11.1316 13.6062 12.0052 13.6869 12.8477 13.5289C13.6902 13.3709 14.4698 12.9799 15.0858 12.3991C15.7023 11.8178 16.1275 11.0718 16.3003 10.2527C16.4732 9.4331 16.384 8.58414 16.0462 7.81518C15.7087 7.04683 15.1403 6.39732 14.42 5.94351Z" fill="white" stroke="#544E38" stroke-width="1.5"/>
</svg>
