<svg width="84" height="84" viewBox="0 0 84 84" fill="none" xmlns="http://www.w3.org/2000/svg">
<path d="M83.6667 42C83.6667 53.0506 79.2768 63.6487 71.4628 71.4627C63.6488 79.2768 53.0507 83.6666 42 83.6666C36.5283 83.6666 31.1101 82.5889 26.0549 80.4949C20.9996 78.401 16.4063 75.3318 12.5372 71.4627C8.66811 67.5936 5.59896 63.0003 3.50502 57.9451C1.41107 52.8899 0.333334 47.4717 0.333334 42C0.333334 30.9493 4.7232 20.3512 12.5372 12.5372C20.3512 4.72316 30.9493 0.333296 42 0.333296C47.4717 0.333296 52.8899 1.41103 57.9451 3.50498C63.0004 5.59892 67.5937 8.66807 71.4628 12.5372C79.2768 20.3512 83.6667 30.9493 83.6667 42ZM21.1667 42L42 62.8333L42 50.3333L58.6667 50.3333L58.6667 33.6666L42 33.6666V21.1666L21.1667 42Z" fill="#A99B76"/>
</svg>
