<svg width="21" height="21" viewBox="0 0 21 21" fill="none" xmlns="http://www.w3.org/2000/svg">
<path d="M15.4067 19.2511L15.4011 19.2511C11.517 19.2461 7.79335 17.7009 5.04685 14.9544C2.30048 12.208 0.755294 8.48458 0.750122 4.60064C0.750242 3.57972 1.15585 2.60064 1.87776 1.87873C2.59978 1.15671 3.57904 0.751091 4.60012 0.751091V0.751113L4.60583 0.751069C4.815 0.749476 5.02381 0.768459 5.22926 0.807744L5.24474 0.810704L5.26033 0.813012C5.4571 0.842129 5.65054 0.890487 5.83785 0.957392L5.83785 0.957403L5.84181 0.958793C5.88287 0.9732 5.91946 0.998076 5.94796 1.03096C5.97646 1.06385 5.99589 1.1036 6.00431 1.14629L6.00646 1.1572L6.00894 1.16804L7.37869 7.16694C7.37872 7.16707 7.37875 7.16721 7.37878 7.16734C7.38791 7.20793 7.38677 7.25016 7.37545 7.29021C7.3641 7.33038 7.34287 7.36708 7.31369 7.39694L7.30702 7.40376L7.30053 7.41075C7.29177 7.42018 7.28598 7.42632 7.28239 7.4301C7.27319 7.43641 7.24991 7.45166 7.20147 7.47974C7.04776 7.56885 6.75763 7.72124 6.13394 8.04577L5.50239 8.37438L5.79768 9.02217C6.85722 11.3466 8.71622 13.2132 11.0362 14.2823L11.6835 14.5805L12.0144 13.9493C12.3439 13.3208 12.4989 13.0278 12.5894 12.8725C12.6188 12.822 12.6345 12.7983 12.6408 12.7891C12.6445 12.7856 12.6507 12.7797 12.6605 12.7707L12.6675 12.7642L12.6743 12.7575C12.7041 12.7283 12.7408 12.7071 12.781 12.6958C12.821 12.6845 12.8632 12.6833 12.9037 12.6924C12.9039 12.6924 12.9041 12.6925 12.9043 12.6925L18.9006 14.0617C18.9009 14.0618 18.9012 14.0618 18.9015 14.0619C18.9425 14.0716 18.9804 14.0914 19.0116 14.1196C19.0431 14.1481 19.0669 14.1841 19.0806 14.2242L19.0806 14.2242L19.0835 14.2324C19.1529 14.4277 19.2053 14.6286 19.2401 14.833C19.2734 15.042 19.2901 15.2533 19.2901 15.4649C19.2733 16.4797 18.8565 17.447 18.1302 18.1561C17.4026 18.8664 16.4235 19.2601 15.4067 19.2511Z" stroke="#544E38" stroke-width="1.5"/>
</svg>
