<svg width="24" height="24" viewBox="0 0 24 24" fill="none" xmlns="http://www.w3.org/2000/svg">
<path d="M16 16C15.9075 16.0927 15.7976 16.1663 15.6766 16.2164C15.5557 16.2666 15.426 16.2924 15.295 16.2924C15.164 16.2924 15.0343 16.2666 14.9134 16.2164C14.7924 16.1663 14.6825 16.0927 14.59 16L11.3 12.71C11.2055 12.6174 11.1303 12.5069 11.0788 12.3851C11.0273 12.2632 11.0005 12.1323 11 12V8C11 7.45 11.45 7 12 7C12.55 7 13 7.45 13 8V11.59L16 14.59C16.39 14.98 16.39 15.61 16 16Z" fill="#544E38"/>
<path fill-rule="evenodd" clip-rule="evenodd" d="M11.99 2C6.47 2 2 6.48 2 12C2 17.52 6.47 22 11.99 22C17.52 22 22 17.52 22 12C22 6.48 17.52 2 11.99 2ZM15.6766 16.2164C15.7976 16.1663 15.9075 16.0927 16 16C16.39 15.61 16.39 14.98 16 14.59L13 11.59V8C13 7.45 12.55 7 12 7C11.45 7 11 7.45 11 8V12C11.0005 12.1323 11.0273 12.2632 11.0788 12.3851C11.1303 12.5069 11.2055 12.6174 11.3 12.71L14.59 16C14.6825 16.0927 14.7924 16.1663 14.9134 16.2164C15.0343 16.2666 15.164 16.2924 15.295 16.2924C15.426 16.2924 15.5557 16.2666 15.6766 16.2164Z" fill="white"/>
<path d="M11.99 1.25C6.05481 1.25 1.25 6.06676 1.25 12C1.25 17.9332 6.05481 22.75 11.99 22.75C17.9337 22.75 22.75 17.9347 22.75 12C22.75 6.0653 17.9337 1.25 11.99 1.25Z" stroke="#544E38" stroke-width="1.5"/>
</svg>
